<?xml version="1.0" encoding="utf-8"?>
<!-- Generator: Adobe Illustrator 20.0.0, SVG Export Plug-In . SVG Version: 6.00 Build 0)  -->
<svg version="1.1" id="Layer_1" xmlns="http://www.w3.org/2000/svg" xmlns:xlink="http://www.w3.org/1999/xlink" x="0px" y="0px"
	 viewBox="0 0 1949.7 1995.9" style="enable-background:new 0 0 1949.7 1995.9;" xml:space="preserve">
<style type="text/css">
	.st0{fill:#39396B;}
</style>
<g transform="translate(0.000000,2929.000000) scale(0.100000,-0.100000)">
	<path class="st0" d="M9146.4,29284.6c-8-6-38-15-67-21c-28-6-57-18-63-26c-7-7-23-14-35-14c-13,0-45-7-73-16c-59-19-91-14-123,21
		c-19,19-34,25-70,25c-25,0-50-5-55-10c-6-6-75-15-155-21c-79-6-171-17-204-24c-33-8-82-17-109-20c-27-4-59-13-70-20
		c-12-8-59-18-106-24s-132-19-190-30s-141-27-185-35c-44-9-102-22-130-30c-27-8-101-27-164-42c-63-14-132-32-154-40s-49-14-61-14
		c-11,0-34-7-51-16c-16-9-46-20-65-25c-19-4-66-20-105-34c-38-15-88-32-110-39c-22-6-49-16-60-22s-33-14-50-18c-16-4-43-13-60-20
		c-16-8-55-24-85-36s-73-31-96-41c-23-11-45-19-49-19c-8,0-45-17-235-107c-63-31-153-74-200-96s-97-46-112-54c-14-7-34-13-45-13
		c-27-1-123-46-252-120c-159-91-154-88-361-222c-48-32-90-58-93-58c-2,0-67-42-143-92c-77-51-158-103-182-116c-23-12-66-40-94-62
		c-28-21-63-42-77-45c-14-4-41-19-61-35c-21-16-48-34-61-40c-13-5-45-22-70-38c-154-92-226-137-253-157c-17-13-44-27-61-31
		c-16-4-41-15-54-26c-13-10-31-18-40-18s-22-9-29-20s-19-20-28-20c-8,0-54-21-102-47c-48-25-98-52-112-60c-14-7-33-13-42-13
		s-20-5-23-10c-4-6-21-17-38-25c-18-9-54-29-82-45c-27-16-60-29-72-29c-12-1-28-7-36-15c-19-19-127-76-144-76s-178-158-186-183
		c-4-9-18-22-31-27c-14-5-30-19-37-32c-11-21-38-52-177-204c-26-28-56-61-68-75c-12-13-32-34-45-46s-51-52-84-88
		c-145-159-297-295-366-327c-19-9-47-31-64-48c-16-18-48-41-69-52c-93-48-305-240-355-320c-12-21-26-38-31-38s-21-22-36-50
		c-15-27-35-52-45-55s-23-21-29-39s-26-48-45-66c-19-19-35-39-35-46c0-6-7-17-15-24c-8-6-30-35-50-63c-19-29-55-79-80-112
		c-24-33-64-98-88-145s-48-94-55-105c-27-49-62-135-62-154c0-11-7-26-15-35c-8-8-15-23-15-33c0-22-35-90-60-118c-10-11-23-37-28-58
		c-6-20-25-56-44-79c-18-23-40-58-49-78c-9-19-35-62-57-94c-23-33-42-67-42-76s-18-36-40-59s-40-51-40-61c0-11-15-37-34-57
		c-18-21-38-54-45-74c-6-20-24-48-40-63c-16-16-32-38-35-50c-3-13-25-52-48-88c-84-128-133-211-146-247c-7-20-25-52-41-71
		c-15-19-34-53-41-75s-16-44-20-50c-4-5-13-26-19-46s-24-49-40-65s-32-45-36-64s-13-48-21-65c-7-16-22-64-35-105
		c-12-41-30-97-40-124c-11-27-24-92-30-145s-15-111-21-129c-5-17-9-68-9-111c0-51-5-93-15-117s-14-52-10-73c3-20,1-51-4-71
		c-5-19-14-143-21-275s-14-262-16-290c-2-27-6-633-8-1345c-2-816-8-1343-14-1425c-6-71-13-155-15-185c-10-153-25-288-34-315
		c-6-16-13-72-16-123c-5-77-3-102,13-140c28-73,42-113,57-165c7-26,20-57,28-69c9-12,16-32,16-43s9-46,20-78c11-31,20-68,20-83
		c0-14,6-40,14-57c16-34,50-167,60-232c4-22,15-78,26-125c21-96,38-179,51-260c5-30,15-86,24-125c19-85,43-224,56-325
		c6-41,17-103,25-137c7-34,14-74,14-90c0-15,7-59,16-98c8-38,20-99,26-135c5-36,16-90,24-120s14-68,14-85c0-18,8-61,19-96
		c10-35,23-86,29-114c38-180,62-253,107-321c18-27,44-70,57-95c36-67,37-69,54-62c19,7,44,55,44,85c0,13,6,43,14,68s22,68,31,95
		c9,28,22,77,30,110c7,33,29,107,49,165c31,93,51,146,101,280c7,19,20,49,29,65c9,17,16,36,16,42c0,7,9,27,20,45s20,40,20,48
		c0,20,45,129,59,143c6,6,11,16,11,22c0,15,130,266,146,283c8,7,14,20,14,29c0,8,6,27,14,41c8,15,28,56,45,92c30,65,39,81,73,132
		c10,15,18,33,18,40c0,8,7,23,15,35c14,19,19,21,41,11c23-11,25-16,20-48c-4-19-11-62-17-95s-16-69-23-80s-17-36-21-55s-13-46-21-60
		c-7-14-25-52-39-85c-15-33-35-78-46-101c-10-23-19-48-19-57c0-16-11-44-51-132c-9-22-21-53-25-70c-4-16-10-34-14-40
		c-4-5-13-28-20-50s-16-45-21-50c-4-6-13-33-19-60c-6-28-15-59-20-70c-35-74-86-269-100-383c-6-47-15-93-20-103c-33-61-37-509-6-584
		c9-21,20-61,25-89c11-58,39-139,61-176c9-14,21-34,28-45c6-11,19-33,28-50c18-32,230-245,244-245c5,0,15-6,22-13s31-22,53-33
		c22-12,94-48,159-82c66-34,127-62,136-62c8,0,31-8,50-19c19-10,55-22,80-26c24-4,54-13,65-21c11-7,54-16,95-19c41-4,116-13,165-21
		c106-16,359-18,436-4c30,6,101,15,159,20s141,19,185,30c190,51,231,63,257,76c14,8,34,14,45,14c10,0,35,9,56,20c20,11,42,20,47,20
		c6,0,48,18,95,40s93,40,102,41c10,0,39,12,64,27c26,15,75,43,110,64c35,20,95,59,134,87c38,28,74,51,79,51c30,0,328,280,404,380
		c31,41,62,80,68,85c52,48,237,335,290,450c7,16,18,37,23,45c21,33,85,195,111,280c12,41,30,102,40,135c45,148,73,287,95,460
		c8,61,19,144,26,185c9,53,12,242,11,647c-2,475,1,580,13,615c7,24,18,61,24,83c5,22,18,63,28,90l19,50l204,6c113,4,225,11,250,17
		s75,17,111,25c36,7,87,26,113,41c57,33,219,193,266,261c18,28,40,54,47,58s13,14,13,22c0,7,18,36,40,64s40,54,40,58c0,5,9,16,20,26
		c11,9,20,23,20,32c0,8,9,19,20,25s20,17,20,24c0,18,98,109,141,131c19,10,50,30,69,45s53,33,75,40s45,16,50,21c21,16,132,21,186,9
		c30-7,97-20,149-30s118-23,145-30c147-33,237-50,298-55c37-3,78-10,92-15c13-5,59-12,102-15c43-4,101-13,128-20c28-7,84-16,125-20
		c41-3,111-12,155-20s132-17,195-20c63-4,165-13,225-20c158-20,647-28,950-16c291,11,768,45,860,61c33,5,82,10,110,10
		c27,0,106,9,175,19c116,18,166,25,390,52c47,5,130,18,185,29c55,10,126,24,158,29c31,6,83,16,115,22c31,6,91,19,132,29
		s99,21,127,25c29,4,55,10,58,15c3,4,31,11,62,15c32,4,69,13,83,20s48,16,75,20c28,4,65,14,84,21c18,8,45,14,60,14s51,7,81,15
		s80,20,110,26c30,7,62,17,70,24s33,16,55,20c42,7,225,64,310,96c28,10,57,19,65,19s28,7,44,15s47,18,70,21c39,6,133,38,203,70
		c17,8,38,14,47,14c8,0,37,10,63,21c92,41,128,57,188,79c33,12,73,28,88,36c16,8,46,17,68,20c21,4,44,13,50,20c6,8,18,14,26,14
		s40,12,71,26s75,34,97,44c47,21,146,66,227,104c31,14,62,26,68,26s28,8,48,19c20,10,51,25,67,33c17,8,48,24,70,36s72,37,110,55
		c39,19,105,53,148,75c44,23,95,46,114,53c20,6,54,24,77,39c22,15,69,43,103,61c35,19,80,44,100,56c21,12,65,36,98,53
		c57,30,125,70,240,142c28,17,77,45,110,63c81,43,160,92,293,181c41,27,96,62,124,77c28,16,76,45,107,66s74,50,96,64
		c22,15,48,33,57,40c61,43,96,67,211,142c70,46,140,95,154,109c14,15,51,40,82,58c31,17,86,55,123,85c37,29,71,53,77,53
		c5,0,14,6,18,13s46,38,93,70c144,96,169,129,108,142c-18,4-43,13-55,21c-12,7-39,18-60,23s-69,21-108,36c-38,14-90,31-115,36
		c-53,11-165,48-200,66c-14,7-32,13-40,13s-44,9-80,19c-249,76-450,76-595,1c-21-11-44-20-50-21c-20-1-154-95-251-176
		c-100-84-122-95-144-68c-20,24-4,61,55,128c30,34,98,112,150,172c52,61,100,115,107,120c7,6,42,35,78,66c87,75,184,140,239,160
		c25,9,60,21,76,28c121,44,178,54,294,49c64-3,143-12,176-21c58-15,116-27,240-49c33-6,86-19,118-29c31-11,64-19,73-19s30-7,47-14
		c18-8,55-19,82-24c28-6,64-15,80-20c30-10,97-24,305-64c136-25,318-38,389-27c50,7,134,26,260,58c44,12,80,7,93-13c4-6,8-36,8-67
		c0-56-10-80-83-200c-56-91-217-259-250-259c-10,0-129-71-167-100c-19-15-71-53-115-86c-44-32-87-65-96-74c-10-8-39-31-65-50
		s-92-73-148-120s-123-103-151-125c-27-22-57-47-66-55c-63-59-106-96-194-166c-55-44-113-92-129-107c-15-14-65-55-109-89
		c-44-35-97-78-116-96c-20-18-61-52-91-75s-60-46-67-52c-6-5-37-28-68-50c-30-22-106-80-168-128s-125-95-142-104c-16-8-68-46-115-82
		c-110-87-203-150-240-163c-17-5-30-14-30-18s-24-24-52-43c-29-20-78-54-108-76s-95-64-144-93c-48-29-98-60-111-68
		c-88-58-179-115-235-146c-36-20-83-48-105-62s-64-39-94-55s-89-50-130-76c-42-27-105-61-141-77c-36-15-86-42-111-60
		c-25-17-55-35-68-39c-12-4-66-31-118-61c-53-30-98-54-101-54c-7,0-86-35-127-57c-16-8-52-26-80-40c-27-14-57-29-65-34s-26-14-40-20
		c-69-32-116-55-130-64c-8-6-42-21-75-33c-33-13-78-31-100-42c-150-70-218-100-228-100c-7,0-22-6-33-14c-10-8-67-32-124-54
		c-58-23-141-55-185-73c-44-17-102-39-130-49c-27-10-63-26-80-34c-16-9-34-16-40-16c-5,0-44-14-85-31c-79-33-163-62-245-84
		c-27-7-81-25-120-39c-38-15-92-33-120-40c-27-8-88-28-135-44c-47-17-116-39-155-51c-38-11-101-29-139-41c-38-11-78-20-89-20
		c-12,0-50-9-86-19c-71-21-173-47-316-81c-49-11-110-27-135-35s-65-17-90-20s-70-12-100-20c-101-26-214-46-337-60
		c-67-7-126-16-131-19s-52-10-103-16c-52-5-132-16-179-24s-137-20-200-26s-151-15-195-20c-491-50-1460-30-1925,41
		c-36,5-112,16-170,24s-116,19-130,24c-14,6-61,13-105,17s-91,11-105,16s-52,15-85,23c-33,7-73,18-90,24c-16,5-50,17-75,24
		c-124,39-244,89-330,136c-8,4-33,17-55,27s-79,56-127,102c-58,55-95,82-111,82c-29,0-65-38-106-110c-17-30-49-80-71-110
		s-51-71-64-90c-24-35-165-177-221-223c-89-72-234-157-293-172c-47-11-72-43-72-92c0-24-6-76-14-116s-17-126-21-192
		c-6-114-29-272-60-415c-8-36-19-96-25-134s-13-73-16-77c-2-4-9-31-14-61c-5-29-16-75-24-103c-8-27-24-88-36-135s-30-112-40-145
		s-21-78-25-100c-7-45-40-151-54-176c-6-9-13-34-17-55c-4-22-15-55-25-74c-11-19-19-39-19-45c0-17-67-183-92-229c-5-11-19-47-30-80
		c-10-34-41-106-68-161c-26-55-51-107-54-115c-4-8-17-33-30-55s-47-85-75-140c-29-55-69-127-91-160c-21-33-53-85-71-115
		c-17-30-39-64-49-75s-30-42-44-68c-28-54-102-159-138-197c-13-14-49-59-80-100c-30-41-93-113-139-160c-46-46-99-103-117-124
		c-19-22-62-62-95-89c-34-28-94-79-133-114c-69-62-94-81-179-135c-22-14-78-50-125-80c-111-72-199-119-285-153c-38-15-88-35-110-45
		c-166-75-482-154-675-167c-95-7-99-15-43-82c27-31,61-70,78-87c16-16,66-70,110-118s86-93,93-99c7-7,73-70,146-142
		c143-141,214-203,318-280c37-28,70-57,73-66s16-21,30-27c27-13,49-30,105-85c22-20,44-37,49-37c6,0,21-12,34-26c32-34,52-27,97,32
		c19,25,51,63,70,85c19,21,43,49,52,61c10,13,37,48,60,78c50,64,76,100,135,188c23,35,56,79,73,98c16,19,30,42,30,52
		c0,9,19,44,42,77c41,57,95,155,174,313c20,39,40,74,44,77s11,17,15,32c3,16,21,60,39,98c18,39,36,82,40,98c3,15,11,27,16,27
		s12,17,16,37s22,64,39,98c18,33,57,107,86,165s74,132,101,165c26,33,58,72,70,88c12,15,40,40,63,55c22,15,41,30,43,34
		c8,18,83,55,152,75c124,37,254,29,420-24c25-8,70-20,100-27s79-21,108-30c127-39,152-45,230-55c45-6,90-15,100-19c9-5,51-13,92-16
		c41-4,98-13,125-21c28-8,97-17,154-21c58-3,118-10,135-15s159-17,316-27c497-30,1368-20,1725,19c50,5,140,14,200,20
		c61,5,157,16,215,25c58,8,148,19,200,24s109,14,125,19c17,5,78,12,137,15c58,4,128,13,155,20c26,8,77,17,113,21s72,11,80,15
		c9,5,54,14,100,20c47,6,105,17,130,25c25,7,73,17,108,20c94,10,564,111,625,134c14,6,54,13,89,17c34,4,74,11,88,17
		c14,5,57,18,95,28c39,9,104,27,145,39s98,26,125,32c72,15,292,76,360,99c47,16,116,37,165,49c25,6,65,18,90,26c25,9,61,19,80,23
		s49,15,67,24s42,17,55,17c13,1,41,9,63,20s51,19,63,20c13,0,38,6,55,14c18,8,52,21,77,29c70,23,112,38,145,52c41,18,119,44,180,60
		c47,12,92,29,160,60c17,7,44,17,60,21c17,4,39,13,50,20c11,6,35,15,53,19s45,13,60,21s33,14,40,14s34,11,60,24c55,28,227,96,243,96
		c6,0,23,7,37,15c28,15,117,53,262,111c47,19,117,50,155,68c92,45,165,76,176,76c5,0,64,27,131,60c68,33,127,60,133,60
		c10,0,320,150,520,253c17,8,64,32,105,52c137,68,354,181,395,206c22,13,69,38,105,54s72,35,80,41c8,7,26,18,40,24s40,22,59,36
		c19,13,46,27,60,31c14,3,37,15,51,25c40,31,131,88,185,116c28,15,65,36,83,48c18,13,52,32,75,44s78,41,122,65
		c108,59,264,135,276,135c16,0,102,41,126,60c18,14,52,20,143,25c161,10,174,4,204-88c13-39,123-50,191-18c61,29,345,322,345,356
		c0,4,27,37,60,73c33,37,60,70,60,75s33,50,73,100c71,89,138,176,184,238c53,73,285,283,350,318c20,10,93,111,93,127
		c0,3,14,23,31,45c16,21,44,64,61,96s34,60,37,63c4,3,22,26,40,51c63,90,102,84,181-28c27-37,53-72,57-78c34-42,174-260,193-300
		c20-43,24-70,28-188c4-134,3-139-23-189c-33-63-247-308-269-308c-5,0-20-10-34-22c-22-21-33-23-145-23c-103,0-127,3-157,20
		s-53,19-155,19c-110,0-125-3-178-28c-60-29-175-135-249-231c-21-27-59-75-83-105c-25-30-49-59-53-65c-18-23-163-198-236-285
		c-139-166-264-272-364-309c-73-27-96-26-244,19l-107,32l-73-22c-40-13-104-40-143-60c-38-21-90-48-115-61c-43-22-86-48-204-124
		c-30-19-63-38-73-42s-40-23-68-43c-27-20-72-49-100-65c-27-16-81-52-120-80c-38-29-92-65-118-81c-27-16-59-36-72-44
		c-12-8-57-37-99-65c-43-27-98-64-124-82s-91-57-144-88c-54-31-98-60-98-66c0-5-5-9-12-9c-6,0-19-6-27-14c-9-7-41-26-71-41
		c-30-16-78-44-107-62c-28-18-82-49-120-69c-37-19-96-53-131-75c-34-21-106-62-160-90c-53-28-104-56-112-63s-62-36-120-65
		s-123-64-145-77s-51-28-65-34s-50-23-80-39c-30-15-98-49-150-75s-108-54-125-63c-16-8-52-26-80-40c-27-14-57-29-65-34
		c-15-9-31-16-100-46c-19-8-48-22-65-30c-143-73-206-103-217-103c-7,0-69-27-136-60c-68-33-127-60-132-60c-11,0-72-27-175-76
		c-38-18-104-45-145-59s-88-32-105-40c-74-35-223-95-250-100c-16-4-39-11-50-16c-11-4-38-15-60-23c-22-7-88-34-148-59
		c-59-25-126-49-150-52c-23-4-58-16-77-26c-19-11-43-19-53-19c-11,0-31-7-45-15c-28-16-93-40-152-56c-19-6-60-17-90-26
		c-30-8-75-23-100-33s-63-21-85-25s-51-13-65-20c-26-14-149-49-210-60c-19-4-73-19-120-35c-127-42-250-77-295-84
		c-61-10-208-46-230-56c-11-5-49-16-85-24s-114-25-175-39c-60-14-135-28-165-32s-71-13-91-20s-63-17-95-21s-72-12-89-19
		c-16-7-59-16-95-20s-76-12-90-18c-14-5-77-15-140-23c-63-7-141-17-172-23c-32-6-84-16-115-22c-32-6-121-19-198-30
		c-77-10-169-23-205-28c-153-22-370-41-575-51c-121-6-263-16-315-22c-152-17-905-14-1080,5c-80,9-203,18-275,22
		c-132,6-355,28-455,46c-30,5-86,14-125,20c-38,6-110,19-160,29c-49,10-142,28-205,40c-63,11-135,27-160,34c-25,8-61,17-80,21
		c-33,6-83,21-220,66c-76,25-183,34-219,19c-27-11-81-74-81-95c0-5-8-18-19-29c-10-12-38-70-62-131c-23-60-48-117-54-125
		c-20-25-54-104-61-138c-4-18-10-35-14-37c-4-3-21-33-38-67c-68-142-123-254-132-268c-35-57-90-160-90-170c0-6-8-23-18-38
		c-11-15-32-46-48-70s-33-49-38-57c-14-19,63-89,139-127c33-16,78-41,100-54c48-28,82-44,97-44c6,0,32-16,59-35s59-37,73-41
		c14-3,30-12,37-20c6-8,22-14,35-14c33,0,65-15,103-49c18-17,39-31,45-31c6-1,29-9,51-20s46-19,54-20c7,0,27-12,44-26
		c29-24,144-84,162-84c4,0,32-16,62-36s70-40,89-46c19-5,71-32,117-59c45-27,101-55,125-61c23-6,61-24,85-42c53-38,126-75,151-76
		c10,0,38-16,62-35c34-28,51-35,87-35c31,0,49-6,62-20c10-11,35-25,56-32c21-6,50-24,65-39c15-16,33-29,39-29s59-27,118-60
		c60-33,114-60,120-60c7,0,28-8,47-19c19-10,52-21,73-25c28-5,43-15,55-37c9-16,28-32,42-36c14-3,41-20,60-38s51-38,71-43
		c19-5,56-25,82-45c41-31,140-77,167-77c16,0,162-50,174-59c6-4,30-11,52-15c23-3,54-13,70-21s37-15,47-15s39-9,65-20
		c27-12,89-24,147-29c107-11,162-23,237-52c31-13,72-19,125-19c50,0,88-6,107-15c42-22,162-45,197-38c28,5,52,0,192-43
		c27-9,61-12,77-9c33,7,137-12,159-29c8-6,51-11,95-11c54-1,99-7,133-20c45-16,57-17,93-6s45,10,68-5c20-13,56-19,132-24
		c58-3,115-11,127-18s46-12,75-11c98,2,263-9,291-20c21-8,39-8,66,0c31,9,43,8,69-5c34-18,79-21,101-7c8,5,25,5,40,0
		c25-8,235-17,476-19c66-1,130-7,143-13c17-8,28-8,42,1c25,15,65,15,89,0c15-9,28-9,60,2c32,10,46,10,70,0c18-7,38-9,48-4
		c10,4,65,9,123,11c227,5,382,14,475,28c22,3,60,7,85,9s53,7,63,11c9,4,27,5,39,2s31-1,42,5c12,6,32,13,46,14c117,13,259,39,385,71
		c33,8,96,21,140,28c154,26,250,44,305,59c30,8,83,18,118,22c34,3,65,11,68,15c3,5,14,4,25-2c16-8,25-7,38,5c10,9,44,17,86,21
		c39,3,99,10,135,15c36,6,130,13,210,16c108,4,162,11,210,26c36,12,69,25,74,30c6,4,17,8,27,8c9,0,43,13,75,30c32,16,63,30,67,30
		c5,0,23,6,40,14c18,7,59,23,92,36s74,31,90,40c17,10,45,21,62,25c18,3,35,11,39,16c3,6,44,28,90,50c102,47,240,116,394,196
		c63,33,198,103,300,156c102,52,219,113,260,134c41,22,80,48,85,59c25,49,161,204,179,204c6,0,21,17,34,38c13,20,43,52,67,70
		c23,18,55,44,70,58s50,41,78,60s60,45,71,58c12,12,37,32,56,44c20,11,47,33,60,48c14,15,45,36,70,48c62,29,159,95,169,115
		c5,9,12,36,16,60c5,28,19,56,41,81c19,21,34,42,34,47c0,14,72,80,195,177c116,93,138,118,129,152c-3,12,1,35,9,51c9,16,19,46,23,67
		c4,22,21,55,39,75c17,20,36,43,41,52c11,19,76,73,154,126c30,20,63,44,72,54c9,9,48,40,87,69s73,61,76,71c4,10,19,26,36,36
		c16,9,29,21,29,26s11,35,24,66c36,83,64,196,70,281c3,41,12,128,20,195c32,252,46,438,52,676c3,135,10,281,14,325
		c27,248,39,344,44,352c3,5,10,40,16,78s20,95,30,127c11,31,20,69,20,83c0,23,14,60,61,160c10,22,19,45,19,51s6,16,14,22
		c8,7,18,27,22,44c7,32,29,83,110,255c24,51,44,98,44,104s15,43,34,82c57,121,74,160,85,196c36,125,80,195,115,184
		c39-12,40-21,18-126c-42-198-51-244-71-378c-27-182-49-382-61-574c-6-87-15-190-20-230c-5-39-14-150-20-246s-15-200-20-230
		s-14-129-20-220s-17-201-25-245c-7-44-16-134-20-200c-3-66-9-137-14-157s-7-39-4-41c12-12,51,43,57,80c4,22,14,49,21,60
		c8,10,15,27,15,38c0,12,9,38,19,59c11,21,23,52,27,69c8,40,46,125,78,176c14,22,28,51,32,65c13,54,235,236,287,236
		c24,0,31,37,13,65c-22,34-20,51,15,113c22,40,29,61,24,82c-8,36,16,92,60,141c19,22,35,46,35,54s15,32,34,52c21,24,36,53,40,79
		c4,23,23,66,43,95c50,77,66,108,79,159c22,81,51,154,102,255c54,109,85,183,97,230c3,16,28,66,55,110c26,44,53,97,58,117
		c6,21,24,57,40,82c17,24,33,55,37,68c4,12,13,30,20,38c11,14,27,94,40,200c3,27,20,68,40,100c42,66,49,82,64,140
		c26,96,42,146,56,177c8,17,15,38,15,47s15,33,34,54c19,20,39,56,45,79s15,45,20,47c5,3,12,23,15,43c4,21,13,54,20,73
		c21,52,46,129,60,186c8,28,18,59,23,70c6,10,14,37,17,58c4,21,14,48,21,60c8,13,13,52,14,102c0,51,6,97,17,125c9,24,18,76,19,114
		c5,141,18,270,28,283c6,7,11,46,12,85c5,158,18,293,33,314c10,16,12,36,8,65c-3,25,0,70,9,108c9,36,20,104,25,152
		c6,48,19,115,30,149s20,69,20,78s6,28,14,43c8,14,19,50,25,79s16,58,21,64s13,29,19,50c10,42,64,193,111,310c24,59,50,153,85,310
		c4,17,11,68,16,115c10,86,13,128,25,323c4,59,11,110,16,113c11,7,10,51-2,59c-13,8-13,48,1,79c9,19,9,32-1,56s-10,36,0,61
		c10,24,10,38,0,69s-10,42-1,54c10,12,10,39,1,127c-7,62-16,199-20,303c-5,105-13,214-18,241c-6,28-15,117-22,200
		c-7,82-16,159-20,171c-5,12-12,66-15,120c-4,55-13,126-20,159s-16,92-20,130c-4,39-13,97-20,130s-17,94-20,135c-4,41-11,80-15,85
		c-5,6-13,55-20,110s-18,122-26,149s-14,70-14,95s-9,81-19,126c-11,44-24,116-30,160c-17,134-31,227-42,280c-5,28-16,79-23,115
		s-25,85-39,109c-23,41-26,42-36,23c-6-11-11-45-11-75s-6-92-14-138s-17-140-21-209c-3-69-12-177-20-240s-17-185-20-270
		s-10-177-15-205c-6-27-17-113-25-190c-30-273-44-375-59-420c-9-25-16-59-16-75c0-35-35-185-60-255c-10-27-22-68-28-90
		c-5-22-20-65-31-95c-12-30-28-71-36-90c-7-19-24-64-38-100c-13-36-35-87-49-115c-14-27-59-117-99-198c-41-82-81-156-90-166
		s-24-31-32-47c-9-16-36-49-60-73c-35-33-50-42-66-36c-12,3-21,12-21,18c1,29,30,129,41,143s37,96,64,204c7,30,18,71,24,90
		s11,53,11,76c0,22,7,63,15,90c19,65,42,216,61,394c8,80,19,167,24,193c6,26,13,114,16,195s12,179,20,217c7,39,18,164,24,279
		s13,212,15,216s9,99,14,211c10,191,28,322,67,485c7,33,14,69,14,80s9,36,20,57c11,20,20,44,20,52c0,9,17,51,39,94
		c21,42,42,88,46,102c4,13,13,31,19,39c7,8,22,42,35,75c12,33,31,78,41,100c11,22,27,66,36,98c17,62,16,72-33,277
		c-8,36-19,92-24,124c-5,33-15,67-23,75c-7,9-25,52-39,96s-32,94-41,110c-9,17-16,37-16,45s-9,33-20,55s-19,46-20,53
		c0,7-18,50-40,94c-22,45-40,90-40,99s-6,22-14,28c-8,7-17,22-20,35c-3,12-17,44-32,70l-26,47l-57-32c-31-17-65-40-77-50
		c-11-11-24-19-30-19c-5,0-40-20-77-45c-38-25-70-45-72-45c-1,0-79-51-174-113c-94-61-192-125-218-141c-27-16-84-53-128-81
		c-44-29-105-67-135-86s-96-62-148-96c-51-35-96-63-99-63s-20-11-37-23c-17-13-74-49-127-80s-102-63-109-72c-7-8-18-15-24-15
		s-37-18-69-40c-31-22-61-40-66-40s-22-10-38-22c-30-25-36-29-128-84c-33-19-91-55-130-80c-38-24-80-48-92-53c-12-6-41-23-65-38
		s-55-34-71-43c-54-30-282-161-297-170c-8-5-35-20-60-33c-72-37-253-138-280-157c-14-9-40-22-59-28c-19-7-42-19-50-26
		c-9-8-127-71-263-140s-256-130-265-135c-19-10-90-43-133-60c-14-6-32-15-40-20s-44-23-80-39s-103-48-150-70s-119-54-160-71
		c-172-73-195-84-205-92c-5-5-18-9-30-9c-11,0-33-7-50-16c-16-8-66-29-110-47c-44-17-84-34-90-38c-5-4-48-21-95-37
		c-47-17-116-43-155-57c-163-61-294-107-350-124c-33-11-87-28-120-40s-78-26-101-31c-22-5-56-16-75-24s-68-24-109-36
		c-41-11-95-27-120-36s-70-22-100-30c-30-7-86-23-125-34c-38-12-95-28-125-35s-84-20-120-30c-36-9-90-23-120-30s-91-23-135-34
		s-91-23-105-25c-99-17-253-50-290-61c-25-8-79-17-120-20c-41-4-93-13-115-20s-72-16-112-19c-39-3-84-11-100-17c-15-6-82-15-148-20
		c-66-4-160-15-210-24c-49-8-164-19-255-25c-91-5-226-15-300-21c-191-16-1057-17-1190-1c-58,6-166,17-240,22c-74,6-166,17-205,25
		c-38,8-104,19-146,24c-199,27-636,156-815,242c-34,16-65,29-68,29c-4,0-58,30-122,68c-63,37-128,74-145,83c-134,74-409,331-473,444
		c-10,17-28,48-41,70s-31,53-40,68s-20,25-25,22c-15-9-40-62-55-114c-17-61-33-107-56-156c-10-22-28-67-41-100c-12-33-28-63-35-68
		c-6-4-14-21-18-38c-7-33-87-176-136-244c-15-22-40-57-54-79c-43-62-183-203-270-270c-157-122-286-179-443-197c-94-11-141-2-208,37
		c-53,31-224,198-224,219c0,8-4,15-10,15c-8,0-50,66-101,160c-9,16-21,35-26,42c-13,17-43,112-43,135c1,56,73,163,120,178
		c8,3,21,17,28,32c7,16,33,64,58,108c42,74,69,137,96,225c5,19,14,40,19,46s14,38,20,70c6,33,15,64,20,70s15,39,23,75
		c45,205,55,247,65,272c6,16,11,48,11,72s5,56,11,72c20,50,50,235,59,363c5,69,16,157,24,195c9,39,20,115,26,170
		c30,298,42,397,55,462c8,40,15,99,15,131c0,33,9,88,20,122s20,69,20,77c0,7,9,31,20,53s20,49,20,60c0,12,18,59,40,106s40,92,40,100
		s8,32,19,52c54,107,101,211,101,223c0,8,8,26,17,39c10,14,39,70,66,125s58,119,70,141c12,23,35,67,51,99c34,64,80,105,99,86
		c17-17,11-142-9-188c-9-21-22-76-29-123c-20-128-43-242-54-273c-6-15-13-64-17-110c-3-45-12-107-19-137s-16-80-20-110s-11-71-16-90
		s-14-87-19-150c-6-63-17-146-25-185c-8-38-20-117-25-175c-9-107-28-228-54-355c-8-38-20-104-25-145c-6-41-20-115-32-165
		c-11-49-25-119-30-155c-6-36-17-88-25-115c-9-28-22-82-29-120c-7-39-22-101-35-140c-12-38-28-95-35-125c-15-60-74-221-105-286
		c-11-22-20-47-20-55s-4-19-9-25c-5-5-26-40-46-79c-50-92-57-105-76-135c-9-14-35-56-60-95c-24-38-47-73-52-76c-17-12-35-59-30-77
		c4-16,23-23,114-37c68-11,131-15,167-12c125,14,195,26,205,36c6,6,18,11,27,11c8,0,28,7,44,15c105,55,135,73,171,100
		c22,16,45,34,51,40c120,110,172,168,237,262c43,62,117,208,117,232c0,9,8,32,18,51c11,19,22,59,25,89c4,29,11,59,18,67
		c6,7,15,42,19,76c5,35,18,137,30,227c11,90,25,171,30,180c4,9,13,70,20,136c6,66,15,134,20,150c5,17,12,59,16,95c3,36,12,90,19,120
		s17,93,20,140c4,47,11,95,16,107c9,25,45,228,60,338c5,39,15,90,23,115s18,70,21,100c8,69,51,248,63,264c5,6,12,30,15,54
		c5,41,36,131,63,184c8,14,14,37,14,50c0,12,12,46,25,73c14,28,25,55,25,62c0,12,13,46,50,128c10,22,30,74,46,115
		c27,76,129,295,146,314c5,6,23,40,41,76c29,58,35,65,65,68c43,4,49-14,27-81c-10-28-27-92-37-142c-10-49-25-119-32-155
		s-18-78-24-95c-6-16-15-66-20-110s-19-123-30-175s-28-153-37-225c-9-71-22-161-30-200c-8-38-17-113-20-165s-12-149-20-215
		c-25-217-37-501-26-605c13-110,44-235,74-300c46-95,112-207,158-265c53-67,166-177,223-215c20-14,56-39,79-56
		c51-37,202-124,216-124c5,0,35-13,67-29c33-16,78-34,101-40s44-15,47-20c3-4,45-20,93-36c48-15,108-35,133-45s65-21,90-25
		s50-11,55-15c6-4,26-11,45-14c19-4,51-13,70-21c19-7,69-18,110-25c41-6,79-15,85-21c5-5,20-9,33-9s67-9,120-19c53-11,131-22,172-26
		s102-13,135-20c67-15,338-34,635-44c321-10,1065,16,1230,44c47,7,132,17,190,20c58,4,137,13,175,20c39,8,102,17,140,20
		c39,4,90,13,115,20s81,16,125,19s98,11,120,19s67,18,100,22s68,11,77,16c10,5,54,14,99,20c45,5,90,14,100,19c10,6,57,16,106,24
		c79,13,171,35,273,64c19,6,55,15,80,20c25,6,79,19,120,31s102,28,135,36c33,7,77,21,97,29c21,9,47,16,59,16c26,0,142,35,179,55
		c14,7,42,16,64,19c21,4,52,13,70,21c17,8,72,26,121,40c50,14,104,32,120,40c17,7,66,25,110,40c44,14,94,33,112,41c17,8,40,14,50,14
		c11,0,51,16,90,35s79,35,88,35c10,0,43,11,74,24s83,34,116,46s71,28,85,35s41,16,60,20s42,13,50,19c8,7,40,22,70,35s92,41,137,62
		c46,22,87,39,92,39s49,18,98,41c48,22,108,50,133,61s72,33,105,48s92,42,130,60c39,17,88,41,110,53s58,30,80,40s47,23,55,28
		s22,12,31,15s59,27,110,54c52,27,123,62,159,80c36,17,72,35,80,40s51,28,95,49c44,22,107,55,140,74c33,18,69,38,80,44
		c11,5,34,17,50,26c17,8,59,30,95,48s83,45,105,60s69,42,105,60s81,42,100,54s80,46,135,76c55,29,123,66,150,81c28,15,64,34,80,43
		c17,8,48,26,70,39c22,14,65,39,95,55c30,17,62,35,70,40c63,39,164,91,176,91c8,0,22,8,32,18s36,27,57,38c96,50,254,136,349,192
		c31,17,63,32,71,32c26,0,28,26,3,77c-20,41-94,157-121,188c-4,6-37,55-72,110s-71,107-80,116c-8,9-15,20-15,26c0,5-10,18-21,29
		c-12,10-42,46-66,78c-54,70-56,73-85,109c-13,15-41,50-63,78s-65,77-95,109s-91,98-135,146c-98,108-159,168-215,214
		c-24,19-70,61-103,93c-34,31-63,57-65,57c-3,0-42,28-88,63c-45,34-104,77-131,95c-26,18-70,48-98,67c-85,58-154,95-177,95
		c-13,0-36,7-51,15s-42,19-60,24c-79,24-155,55-185,78c-17,13-47,29-65,34c-42,14-121,55-173,90c-22,15-52,31-66,34
		c-13,3-41,21-62,40c-21,18-52,36-70,39c-17,3-47,20-65,37c-19,17-44,35-57,39c-30,12-256,159-270,177c-6,7-15,13-20,13
		s-38,20-74,45s-69,45-74,45c-4,0-25,13-45,29s-52,35-71,43c-19,9-46,26-60,40s-40,30-58,36c-17,6-56,27-86,46c-29,20-60,36-68,36
		c-9,0-21,7-28,15s-18,15-24,15s-40,18-76,40s-72,40-80,40c-9,0-32,8-51,18c-54,28-324,128-424,157c-49,15-115,42-146,61
		c-48,29-73,36-170,48c-126,17-201,31-269,51c-25,7-67,16-95,20c-53,6-137,29-275,75c-113,38-184,67-335,136c-16,8-46,17-65,21
		c-19,3-51,14-70,25c-19,10-47,18-62,18c-14,0-33,6-40,13s-35,19-63,26c-27,7-55,17-61,22s-31,13-55,18s-80,23-124,39
		c-121,45-205,70-255,78c-25,4-51,11-58,17s-36,14-64,18c-28,5-58,15-67,22c-10,9-52,17-113,20c-54,4-114,13-135,22
		c-28,12-71,15-183,14l-145-1l-37-40c-24-24-38-49-38-64c0-17-16-43-50-77c-27-28-50-54-50-59c0-4-11-10-24-14c-14-3-32-14-42-25
		c-9-10-27-19-38-19c-12,0-38-9-59-20s-56-20-81-20c-28,0-52-7-69-20c-23-18-43-21-159-24c-73-1-142-7-153-13c-32-17-83-23-195-24
		c-59,0-144-8-195-19c-121-25-212-32-236-20c-12,7-19,21-19,40c0,23,7,32,33,44c38,18,142,37,189,36c63-3,185,9,214,21
		c16,6,68,12,116,13c55,2,93,7,103,16c9,7,41,17,70,21c73,10,154,50,197,97c29,33,36,48,41,102c7,65-1,84-30,73c-7-3-24,2-38,11
		c-16,10-34,14-50,10c-14-3-56-1-93,5c-67,12-102,18-280,46c-51,8-100,19-110,24c-9,5-57,12-107,16c-49,4-104,14-121,21
		c-17,8-69,16-116,18c-55,2-96,10-119,21c-22,12-70,20-139,25c-58,4-116,13-129,19c-13,7-64,14-115,16c-82,3-203,16-281,30
		C9175.4,29291.6,9154.4,29289.6,9146.4,29284.6z M10347.4,28295.6c47-30,49-49,13-110c-56-95-124-132-178-97c-14,10-26,23-26,29
		c0,7-11,27-25,46s-25,41-25,50c0,19,74,98,104,110C10242.4,28337.6,10302.4,28324.6,10347.4,28295.6z M8359.4,28000.6
		c15-9,35-17,45-17c11,0,31-9,45-20s29-20,34-20s29-23,53-52c25-29,53-60,63-70c9-10,17-22,17-27c0-16-52-51-75-51c-12,0-28-7-35-15
		s-20-15-29-15s-37-11-63-25s-56-25-68-25c-11,0-37-9-57-20c-21-11-46-20-57-20s-27-7-36-15c-9-9-47-19-84-24c-38-4-71-14-76-21
		c-6-10-45-16-132-20c-68-4-136-12-151-18c-16-7-40-12-55-12c-44,0-192-151-207-212c-4-15-13-32-21-39c-8-6-14-27-14-47s-9-54-19-76
		c-12-25-21-74-24-126c-3-47-13-102-21-122c-9-22-16-66-16-105c0-49-6-79-20-105c-11-21-23-62-26-93c-4-30-13-60-20-66
		c-8-6-14-19-14-29c0-9-9-29-20-43s-20-32-20-41c0-25-91-116-116-116c-27,0-74,59-74,93c0,13-10,37-22,52c-14,19-23,48-28,94
		c-3,36-12,77-20,91c-8,15-15,68-18,132c-4,93-2,116,17,166c14,37,21,75,19,103c-3,41-5,44-33,47c-16,2-39,12-50,22
		c-11,9-40,20-65,24c-24,4-52,14-61,22c-10,9-26,14-36,12c-15-3-18-14-18-73c-1-108-16-122-75-70c-14,13-36,26-50,30s-36,16-49,26
		c-18,15-41,19-97,19c-49,0-90,6-122,19c-28,11-68,20-90,19c-26,0-50,7-71,23c-26,19-31,29-31,63c0,23,7,50,15,60c8,11,15,33,15,48
		c0,16,6,31,14,34c7,3,28,25,47,51c49,65,150,143,196,150c21,3,46,13,57,22c28,24,281,23,316-1c13-10,34-18,46-18c11,0,29-9,39-20
		s26-20,35-20s43-27,75-59l59-60l35,34c66,63,106,97,141,120c19,12,55,42,80,65s59,48,76,55c17,8,46,28,65,45c18,18,54,43,80,57
		c26,13,50,31,53,39s16,14,29,14s32,9,42,20s28,20,40,20s30,9,40,20s28,20,41,20s28,9,34,20c7,14,21,20,44,20c19,0,39,6,45,14
		c6,7,35,16,64,19c28,3,69,15,90,26c32,16,55,19,146,17C8307.4,28018.6,8340.4,28013.6,8359.4,28000.6z M14105.4,27569.6
		c7-8,27-18,44-21c38-8,68-35,108-93c51-76,73-212,46-281c-9-21-15-52-15-69c1-17-5-39-13-48c-7-9-18-24-24-33c-40-66-59-90-87-111
		c-69-51-99-70-116-70c-37,0-43-13-32-71c6-30,18-67,26-84c25-50,15-214-19-290c-14-33-35-64-45-68c-31-14-70,18-77,61
		c-3,21-10,44-16,52c-5,8-16,30-24,48c-9,17-19,32-23,32c-5,0-24,24-42,53c-19,28-38,57-43,62c-33,41-87,119-92,135
		c-4,11-10,20-14,20c-5,0-46,48-92,107s-104,129-129,155s-50,53-55,60c-6,7-31,38-58,68c-56,65-63,111-23,149c55,51,259,31,398-40
		c20-11,51-19,68-19s43-9,58-20c21-15,37-18,69-13l42,5v90c0,98,13,135,74,209c25,30,39,39,63,39
		C14079.4,27583.6,14099.4,27577.6,14105.4,27569.6z M11237.4,26987.6c10-9,32-24,51-33c18-10,34-25,36-34s19-33,38-53
		c19-21,34-44,34-51c0-8,9-26,21-42c11-15,23-47,26-70s10-44,14-47c15-9,10-74-6-80c-8-4-15-9-15-14c0-4-24-42-52-84
		c-29-43-58-87-65-99c-30-54-163-216-189-230c-9-5-25-18-35-28c-17-17-51-25-88-19c-7,1-24-9-37-21c-22-20-25-21-41-7
		c-10,9-33,19-50,23c-18,3-40,16-48,28c-19,28-19,104,0,150c8,20,15,49,15,64s9,42,20,58c11,17,20,41,20,54c0,14,7,32,16,42
		s19,40,22,66s13,61,24,78c10,16,18,46,18,65s7,44,15,54c8,11,15,28,15,37c0,10,11,31,25,47c14,17,25,32,25,35c0,4,12,23,26,44
		c29,44,58,62,96,63c15,0,30,5,33,10C11209.4,27007.6,11217.4,27006.6,11237.4,26987.6z M11782.4,26109.6c4-11,21-35,38-52
		c17-18,42-47,56-65c24-32,32-50,60-129c7-19,19-49,27-65c15-34,17-54,15-137c-2-67-12-72-71-36c-44,28-69,55-77,88
		c-4,14-15,36-26,49c-10,13-18,33-18,45s-9,47-20,79c-11,31-20,76-20,99c-1,24-7,54-15,68c-14,25-20,72-10,82
		C11733.4,26147.6,11776.4,26129.6,11782.4,26109.6z M4486.4,25938.6c30-8,76-20,102-26c25-5,63-19,84-30c21-10,44-19,50-19
		c7,0,50-19,96-42c65-32,101-60,165-124c72-73,84-90,104-152l22-70l-23-94c-21-85-86-228-115-253c-6-5-23-28-38-50
		c-44-65-68-94-142-168c-94-94-190-164-305-221c-111-56-138-70-205-111c-27-17-61-36-75-43s-42-22-62-35c-20-12-77-46-125-75
		s-115-71-148-92c-33-22-73-48-88-57c-119-74-397-337-479-455c-22-31-46-59-54-62c-20-8-17-49,6-76c11-13,20-32,20-43
		c0-22,84-107,105-107c7,0,24-9,38-20s31-20,38-20s31-8,53-19c44-20,121-47,174-61c18-4,42-14,55-22c12-8,40-19,63-26
		c43-12,174-123,174-146c0-7,9-21,19-30c37-33,56-154,55-341c-2-175-25-406-49-485c-8-25-19-76-25-115c-12-76-33-159-55-215
		c-8-19-17-55-20-80c-4-25-13-54-20-65s-16-36-20-55s-14-44-21-55c-8-11-14-29-14-40s-11-42-25-70c-13-27-25-56-25-63s-15-45-34-85
		s-37-83-41-97s-11-29-15-35c-4-5-31-55-60-110c-52-98-98-174-160-265c-17-25-51-75-75-113c-112-170-306-384-480-528
		c-85-71-130-103-302-211c-141-89-384-196-495-219c-29-6-92-20-139-30c-130-29-551-28-682,1c-188,42-199,46-374,134
		c-104,51-122,65-243,186c-81,81-180,226-180,263c0,8-8,25-18,38c-23,31-49,94-57,139c-4,19-15,62-25,95c-50,166-61,398-31,682
		c11,110,25,212,30,225c4,12,14,57,20,98c12,76,23,120,61,241c11,36,20,79,20,95s7,42,15,58c21,40,65,168,65,189c0,9,9,36,19,59
		c11,24,32,81,46,127c15,46,34,95,41,110c8,14,14,33,14,41s7,29,16,45c9,17,28,64,44,105c15,41,35,89,43,105c19,38,44,93,57,125
		c5,14,14,32,19,40c8,13,62,126,100,210c6,14,19,39,28,55c9,17,20,37,24,46c4,9,30,58,57,110s58,110,68,129c9,19,21,42,26,50
		s14,26,21,40c11,21,119,205,148,250c5,8,14,26,20,40c44,104,110,175,137,148c17-17,15-39-8-73c-11-16-20-38-20-48c0-11-9-30-20-44
		s-20-31-20-38s-6-18-14-24c-7-6-16-25-20-42c-3-17-15-42-26-56s-20-32-20-40s-15-40-33-72c-19-31-37-69-40-83c-4-15-23-54-42-87
		s-35-64-35-71c0-6-9-28-19-48c-43-82-101-203-101-212c0-5-15-42-34-82s-37-84-41-98s-16-41-26-60c-11-19-19-42-19-50
		c0-9-15-52-34-97c-18-44-37-98-41-119c-3-21-13-51-21-66s-14-35-14-45c-1-10-9-36-20-58s-19-57-20-78c0-21-7-54-16-75
		c-17-37-47-199-64-342c-15-122-13-318,4-385c39-158,48-189,60-209c8-11,17-32,21-45c28-92,206-278,348-363c54-32,194-85,247-93
		c24-4,54-13,65-20c25-16,238-35,393-35c168,0,345,16,432,39c41,11,109,29,150,40c107,29,380,130,406,152c13,11,123,71,173,94
		c19,9,55,32,79,51c25,19,49,34,54,34c11,0,99,61,163,114c136,111,321,324,375,430c9,17,27,54,42,81c68,134,90,255,55,308
		c-28,43-176,113-352,165c-192,57-247,77-323,113c-151,72-216,145-266,303c-33,103-12,329,43,469c6,16,11,37,11,48
		c0,19,34,101,66,161c19,36,18,62-6,83c-11,10-20,28-20,39c0,17,64,129,97,171c4,6,20,29,36,52c24,38,102,139,190,247
		c49,60,249,276,300,323c24,23,72,65,106,93c105,87,191,172,239,234l46,59l-20,36c-11,21-34,43-54,52c-48,23-88,62-96,94
		c-8,34,10,94,53,168c18,32,33,61,33,64c0,5,191,391,229,463c4,8,18,38,31,65c29,60,70,111,119,147c30,22,47,26,101,27
		C4402.4,25953.6,4456.4,25946.6,4486.4,25938.6z M8683.4,25841.6c32-30,29-68-12-133c-20-30-39-63-42-73c-4-9-24-38-45-63
		s-38-56-38-70c0-13-9-35-20-49c-24-30-25-68-4-98c8-12,12-27,8-33c-10-17-79-4-110,20c-15,12-33,21-42,21c-8,0-25,10-37,23
		c-13,12-41,39-63,61c-40,38-52,69-52,131c0,44,19,95,36,95c12,0,94,71,159,138c12,12,31,22,42,22s26,7,33,15c9,11,33,15,88,15
		C8648.4,25863.6,8663.4,25860.6,8683.4,25841.6z M11844.4,25483.6c57-46,68-73,57-150l-7-50h-73c-55,0-78,4-96,18
		c-13,10-32,21-41,25c-26,9-14,122,16,156C11746.4,25533.6,11780.4,25534.6,11844.4,25483.6z M11240.4,24042.6c38-11,45-23,39-69
		c-4-30-1-42,16-56c30-27,26-50-19-104c-22-26-40-53-40-59c0-12-74-93-184-199c-38-37-74-73-80-80s-26-27-43-44
		c-41-38-83-109-83-138c0-12-4-30-10-40c-7-13-5-31,5-60c8-24,15-53,15-65s9-30,20-40s20-22,20-28c0-5,16-27,36-49
		c19-22,33-45,31-51c-7-22-58-20-78,2c-11,12-29,21-40,21c-27,0-90,44-117,83c-80,113-82,117-82,202c0,93,11,148,34,170
		c9,9,16,31,16,49c0,19,7,39,15,46s15,21,15,32c0,23,48,109,67,121c7,4,13,14,13,22c0,26,44,79,148,180c57,55,126,113,155,128
		s56,32,62,38c5,5,16,7,25,3C11204.4,24054.6,11224.4,24047.6,11240.4,24042.6z M17975.4,20603.6c43-6,60-14,83-39
		c44-49,38-72-43-151c-39-39-82-73-94-76c-13-3-45-33-72-67c-41-52-49-69-53-117s-8-55-28-58c-32-5-107,34-149,77
		c-49,50-83,131-83,196c0,47,4,57,40,97c27,32,50,48,75,52c19,4,48,18,64,31c16,14,38,25,49,25s25,7,32,15s27,15,46,15
		c18,0,36,5,39,11c4,6,14,7,24,4C17914.4,20614.6,17945.4,20608.6,17975.4,20603.6z M5781.4,20414.6c22-10,60-21,84-25s56-13,70-21
		s60-28,101-45c80-33,163-73,245-119c247-137,313-176,347-206c21-19,44-35,51-35c27,0,60-48,60-87c-1-65-58-137-98-124
		c-5,2-32,7-59,12c-27,4-56,15-66,24c-9,8-29,15-44,15c-14,0-53,11-86,25s-71,25-85,25s-43,9-63,19c-21,11-54,22-74,26
		c-32,6-40,3-62-20c-14-15-38-53-53-84c-25-49-28-69-30-159c-2-137-33-223-98-276c-50-42-73-44-162-17s-253,155-253,197
		c0,4-12,20-26,35c-48,50-68,144-69,314c0,126,3,155,17,177c10,15,21,46,24,70c4,24,15,54,24,68c10,14,34,50,54,80
		c55,85,90,120,132,135C5714.4,20437.6,5733.4,20436.6,5781.4,20414.6z M10180.4,20361.6c16-20,18-35,14-109c-3-47-12-101-21-120
		c-18-38-50-128-73-204c-27-88-34-134-24-160c9-23,14-25,75-25c36,0,80-6,98-14c40-18,147-120,147-141c0-9-11-33-25-53s-25-42-25-48
		c0-25-95-92-155-109c-95-26-122-28-173-12c-26,8-66,18-90,22s-46,13-49,21s-20,22-37,31c-69,35-165,142-166,184c0,9-10,29-21,43
		c-20,25-27,27-73,23c-28-2-69-11-91-20c-25-10-72-16-125-17c-74,0-93,4-140,28c-45,22-56,32-58,55c-4,36,12,55,54,63
		c18,3,47,19,64,35c16,16,34,29,39,29c13,0,119,61,202,116c36,24,71,44,77,44s21,14,34,30c12,17,28,30,36,30c7,0,43,25,78,55
		c36,30,69,55,74,55c9,0,57,42,126,110c16,16,35,30,41,30c5,0,18,10,29,21c27,30,53,39,99,35
		C10147.4,20386.6,10167.4,20376.6,10180.4,20361.6z M2174.4,19000.6c37-28,69-66,93-114c17-34,17-35-4-56c-39-39-87-67-116-67
		c-30,0-63,31-101,93c-20,34-21,40-7,55c8,9,18,28,22,42c9,31,44,68,66,69C2135.4,19023.6,2156.4,19012.6,2174.4,19000.6z
		 M1925.4,18745.6c11-9,17-34,19-87c4-63,1-78-17-104c-12-16-21-45-21-64s-9-45-20-60c-11-14-20-37-20-51c0-15-8-43-19-64
		c-10-20-21-50-25-65c-9-39-24-25-31,31c-4,26-13,79-21,118c-13,66-12,75,6,127c11,31,20,77,20,102c0,30,5,47,14,51c8,3,18,20,21,37
		c4,18,19,42,33,55c24,21,26,21,35,5C1904.4,18766.6,1916.4,18752.6,1925.4,18745.6z M16918.4,18356.6c39-45,58-114,58-208
		c0-66-4-96-14-104c-7-6-16-29-20-50c-3-20-15-46-27-57c-12-10-49-53-83-94c-66-82-137-150-155-150c-6,0-28-15-48-34
		c-42-37-157-109-192-121c-13-4-40-24-62-44c-21-21-64-48-95-60s-76-35-101-51c-24-17-50-30-58-30s-23-9-34-21c-19-21-147-89-167-89
		c-6,0-19-9-30-21c-10-12-40-32-66-45s-49-28-52-33s-21-12-40-15c-19-4-39-13-45-20c-7-8-24-17-38-21c-14-3-42-18-61-33
		c-35-26-93-52-122-52c-8,0-28-7-43-15c-31-16-53-11-67,16c-14,26,4,65,37,83c15,8,39,26,52,40c14,14,32,26,40,26c9,0,40,16,68,35
		c29,19,55,35,59,35c22,0,229,114,246,135c11,14,26,25,33,25c8,0,31,11,51,25s46,25,56,25c11,0,30,9,42,19c68,62,92,81,118,92
		c15,6,28,15,28,20s25,27,55,49s69,61,87,86c18,26,48,62,66,82c17,19,32,41,32,49s9,31,20,52c10,21,17,41,14,44c-6,6-21,94-31,180
		c-6,56,7,77,47,77c15,0,30,6,33,13c5,14,231,127,254,127c5,0,18,9,27,19c16,18,35,23,97,29
		C16896.4,18372.6,16910.4,18365.6,16918.4,18356.6z M2464.4,17860.6c70-34,112-76,112-111c0-34-163-195-267-263
		c-23-16-73-59-112-96c-76-72-170-147-185-147c-5,0-33-11-63-26c-33-15-62-23-74-19c-36,12-86,49-109,82c-20,30-22,43-21,187
		c1,190,11,216,100,260c31,14,63,26,72,26s19,7,22,14c3,8,22,18,41,21c19,4,40,13,47,21c6,8,22,14,34,14s34,9,48,20s40,20,60,20
		s44,8,58,20C2263.4,17914.6,2379.4,17903.6,2464.4,17860.6z M3231.4,17012.6c17-5,48-25,69-44s41-35,45-35c3,0,34-21,67-48
		c301-232,385-330,419-493c15-76,8-142-25-234c-10-27-21-61-25-75s-17-41-30-60c-140-217-141-218-260-346c-68-74-195-164-230-164
		c-24,0-105,61-194,148c-58,56-126,112-173,143c-20,14-53,39-75,57c-21,17-78,63-128,103c-107,84-126,110-103,136c9,10,28,41,43,68
		c14,28,39,70,55,95s67,111,115,192c47,81,90,150,96,153c5,4,16,21,24,38c17,37,27,53,78,124c20,29,37,56,37,61s6,15,14,21
		c8,7,18,26,21,42c4,16,11,29,16,29c6,0,15,12,22,28c17,39,60,81,77,75C3194.4,17023.6,3215.4,17017.6,3231.4,17012.6z
		 M16094.4,16791.6c29-23,32-31,32-109c0-73-2-77-40-129c-44-60-84-90-117-90c-24,0-106,41-135,67c-10,9-25,41-34,70
		c-12,43-13,60-4,88c16,49,55,92,90,100c16,4,32,11,36,16C15930.4,16818.6,16074.4,16807.6,16094.4,16791.6z M9008.4,15999.6
		c282-173,334-220,445-405c50-84,52-267,3-358c-11-21-20-41-20-45c0-9-50-81-112-164c-21-28-38-56-38-63s-62-74-138-150
		c-206-204-264-230-356-153c-92,76-235,181-365,268c-190,127-190,126-196,156c-5,20-1,36,14,54c12,15,21,32,21,39c0,6,9,20,20,30
		s20,26,20,35s9,27,20,40s20,26,20,29c0,4,18,27,40,51s40,47,40,51s7,15,16,24s35,44,58,78c103,153,164,237,218,304
		c32,39,58,74,58,77c0,8,49,78,77,110c22,25,30,28,69,23C8945.4,16028.6,8984.4,16014.6,9008.4,15999.6z M7759.4,15926.6
		c28-14,71-41,94-59c23-19,46-34,52-34c27,0,143-94,186-151c108-142,129-176,150-246c24-79,13-204-21-244c-8-8-19-30-25-47
		c-6-18-15-32-20-32s-9-6-9-13c0-22-105-175-172-250c-145-164-217-227-320-281c-33-18-40-18-79-6c-23,8-52,24-63,36
		c-12,11-39,32-61,45c-21,13-46,29-55,37c-67,60-116,97-265,196c-94,63-177,121-184,130c-19,23-5,51,69,141c33,39,60,76,60,80
		c0,13,51,86,80,115c14,14,47,59,75,100c27,41,54,78,58,81c5,4,14,15,20,27c38,65,179,258,211,287c6,6,24,30,40,55
		c17,25,37,51,45,58C7646.4,15968.6,7691.4,15959.6,7759.4,15926.6z M15331.4,13252.6c122-62,146-77,202-128c11-10,30-22,41-25
		c20-7,53-41,117-120c39-48,85-135,85-161c0-11,7-29,15-39c21-27,19-98-5-181c-11-38-20-78-20-87c0-19-77-138-97-151
		c-7-4-13-12-13-17c0-46-281-352-364-396c-66-35-90-31-180,29c-43,28-87,57-98,63s-31,23-46,36c-15,14-45,35-67,48s-54,36-71,51
		c-42,36-139,99-151,99c-25,0-103,72-111,102c-11,42-29,46-44,11c-12-27-52-88-107-163c-14-19-47-57-73-84c-26-26-50-56-53-65
		c-2-9-47-55-98-102c-156-145-184-150-307-56c-131,99-154,116-170,123c-8,4-31,19-50,33s-70,50-114,79c-43,29-83,58-90,63
		c-6,5-32,23-58,39c-58,36-69,67-38,107c31,39,160,215,190,258c14,20,30,42,35,48c6,7,24,32,40,57c17,25,56,78,88,118
		c31,40,57,77,57,81c0,9,108,154,135,182c8,9,15,20,15,25c1,5,16,27,34,48c30,35,39,39,77,39c40,0,87-21,136-63c6-5,34-22,61-37
		c122-70,233-170,290-263c70-113,94-249,57-319c-17-34-21-121-5-121c6,0,16,11,22,25s15,25,19,25c7,0,41,53,89,138c8,14,40,59,70,99
		s71,95,90,123s66,92,103,143c38,50,93,128,123,172c63,95,119,155,142,155C15244.4,13293.6,15287.4,13275.6,15331.4,13252.6z
		 M11205.4,12299.6c10-9,24-16,33-16c16,0,44-22,116-91c61-60,71-73,97-128c66-142,78-249,41-361c-39-118-61-161-115-222
		c-28-31-51-62-51-70c0-7,24-38,54-68c42-43,144-164,198-235c4-5,19-24,33-41c14-18,25-35,25-39s15-26,34-49s40-53,46-66
		c6-14,29-56,50-95c22-38,47-86,56-105c19-45,54-118,70-151c7-14,16-46,20-70s13-57,21-73c12-22,14-58,11-155c-5-128-16-169-70-256
		c-23-37-92-110-120-127l-27-17l-31,42c-20,26-30,50-27,64c2,13-3,29-14,39s-19,28-19,42c0,13-11,37-25,54c-14,16-25,39-25,50
		s-9,31-20,45s-20,37-20,52c0,14-9,41-20,59c-12,20-20,50-20,77c0,26-9,61-20,82c-16,30-20,57-20,126c0,55-5,98-14,115
		c-7,15-17,45-20,67c-5,28-20,54-50,85c-79,83-125,120-151,120c-14,0-29,8-35,20c-8,15-21,20-52,20c-22,0-55,8-72,19
		c-21,12-61,21-120,25c-51,4-103,14-120,24c-22,11-54,16-111,15c-59-1-90,3-122,18c-23,10-55,19-70,19c-33,0-210,75-234,99
		c-9,9-30,28-48,44c-37,33-43,82-11,92c11,3,25,15,30,26c7,12,21,19,40,19c17,0,47,9,67,20c26,14,57,20,97,20c42,0,65,5,78,17
		c29,26,227,31,288,8c62-24,133-30,148-13c11,14,24,58,44,153c6,28,17,57,25,66c12,15,10,17-18,23c-17,3-46,6-65,6c-18,0-44,4-59,10
		c-22,8-24,14-19,37c4,16,13,32,21,36c7,4,13,13,13,19s6,19,14,27c20,24,54,175,62,281c5,71,13,107,31,144l25,49l64-6
		C11161.4,12317.6,11194.4,12309.6,11205.4,12299.6z M9600.4,10210.6c25-24,46-46,46-48c0-3,22-29,50-58c78-83,111-148,113-224
		c2-73-23-134-59-143c-22-6-81,23-124,61c-44,38-130,95-143,95c-6,0-25,9-42,20c-23,16-47,20-107,20c-76,0-78,1-84,27
		c-4,15-2,33,5,42c6,9,16,27,21,41c6,14,14,32,20,40c5,8,16,29,24,45c17,38,48,66,111,99
		C9506.4,10266.6,9543.4,10262.6,9600.4,10210.6z"/>
</g>
</svg>
